<?xml version="1.0" encoding="utf-8"?>
<?xml-stylesheet type="text/xsl" href="rss1.xsl"?>
<rss version="2.0" xmlns:atom="http://www.w3.org/2005/Atom" xmlns:content="http://purl.org/rss/1.0/modules/content/" xmlns:dc="http://purl.org/dc/elements/1.1/" xmlns:media="http://search.yahoo.com/mrss/">
<channel>
 <title>Getty</title>
 <link>http://www.gettyimg.com/</link>
 <atom:link href="http://www.gettyimg.com/" rel="self" type="application/rss+xml" />

 
                <item>
                <title><![CDATA[【Cinema Center】MOVIE - Ralph Spaccatutto (2012) (ITA-ENG) (BDRip 720p x264)]]></title>
                <link><![CDATA[https://sharemania.us/threads/ralph-spaccatutto-2012-ita-eng-bdrip-720p-x264.234050/]]></link>
                <description><![CDATA[<article>
<blockquote class="messageText SelectQuoteContainer ugc baseHtml">
<b>Release Name</b><br>
Ralph Spaccatutto (2012) (ITA-ENG) (BDRip 720p x264)<br>
<br>
<b>Screenshot</b><br>
<img src="https://i.ibb.co/CBchDXQ/Ralph-Spaccatutto-2012-ITA-ENG-BDRip-720p-x264-mkv-thumbs.jpg" class="bbCodeImage LbImage" alt="[​IMG]" data-url="https://i.ibb.co/CBchDXQ/Ralph-Spaccatutto-2012-ITA-ENG-BDRip-720p-x264-mkv-thumbs.jpg" style=""><br>
<br>
<div class="ToggleTriggerAnchor bbCodeSpoilerContainer">
<button type="button" class="button bbCodeSpoilerButton ToggleTrigger Tooltip JsOnly" data-target="> .SpoilerTarget"><span>Spoiler: <span class="SpoilerTitle">Media Information</span></span></button>
<div class="SpoilerTarget bbCodeSpoilerText">General<br>
Unique ID : 27245195301635148207263097220968507013 (0x147F3BD6DB6D6EFA1C2720EC3E946685)<br>
Complete name : Ralph Spaccatutto (2012) (ITA-ENG) (BDRip 720p x264).mkv<br>
Format : Matroska<br>
Format version : Version 4<br>
File size : 2.02 GiB<br>
Duration : 1 h 41 min<br>
Overall bit rate : 2 858 kb/s<br>
Frame rate : 23.976 FPS<br>
Movie name : Ralph Spaccatutto<br>
Encoded date : 2019-04-29 06:34:58 UTC<br>
Writing application : mkvmerge v27.0.0 ('Metropolis') 64-bit<br>
Writing library : libebml v1.3.6 + libmatroska v1.4.9<br>
<br>
Video<br>
ID : 1<br>
Format : AVC<br>
Format/Info : Advanced Video Codec<br>
Format profile : High@L4.1<br>
Format settings : CABAC / 9 Ref Frames<br>
Format settings, CABAC : Yes<br>
Format settings, Reference frames : 9 frames<br>
Codec ID : V_MPEG4/ISO/AVC<br>
Duration : 1 h 41 min<br>
Bit rate : 2 400 kb/s<br>
Width : 1 280 pixels<br>
Height : 536 pixels<br>
Display aspect ratio : 2.39:1<br>
Frame rate mode : Constant<br>
Frame rate : 23.976 (24000/1001) FPS<br>
Color space : YUV<br>
Chroma subsampling : 4:2:0<br>
Bit depth : 8 bits<br>
Scan type : Progressive<br>
Bits/(Pixel*Frame) : 0.146<br>
Stream size : 1.70 GiB (84%)<br>
Writing library : x264 core 157 r2935 545de2f<br>
Encoding settings : cabac=1 / ref=9 / deblock=1:-2:-2 / analyse=0x3:0x133 / me=umh / subme=10 / psy=1 / psy_rd=1.00:0.15 / mixed_ref=1 / me_range=48 / chroma_me=1 / trellis=2 / 8x8dct=1 / cqm=0 / deadzone=21,11 / fast_pskip=1 / chroma_qp_offset=-3 / threads=6 / lookahead_threads=1 / sliced_threads=0 / nr=0 / decimate=1 / interlaced=0 / bluray_compat=0 / constrained_intra=0 / bframes=12 / b_pyramid=2 / b_adapt=2 / b_bias=0 / direct=3 / weightb=1 / open_gop=0 / weightp=1 / keyint=240 / keyint_min=24 / scenecut=40 / intra_refresh=0 / rc_lookahead=30 / rc=2pass / mbtree=1 / bitrate=2400 / ratetol=1.0 / qcomp=0.60 / qpmin=0 / qpmax=69 / qpstep=4 / cplxblur=20.0 / qblur=0.5 / vbv_maxrate=62500 / vbv_bufsize=78125 / nal_hrd=none / filler=0 / ip_ratio=1.40 / aq=1:1.00<br>
Language : English<br>
Default : Yes<br>
Forced : No<br>
Color range : Limited<br>
Color primaries : BT.709<br>
Transfer characteristics : BT.709<br>
Matrix coefficients : BT.709<br>
<br>
Audio #1<br>
ID : 2<br>
Format : AAC LC<br>
Format/Info : Advanced Audio Codec Low Complexity<br>
Codec ID : 2 / A_AAC-2<br>
Duration : 1 h 41 min<br>
Bit rate : 224 kb/s<br>
Channel(s) : 6 channels<br>
Channel layout : C L R Ls Rs LFE<br>
Sampling rate : 48.0 kHz<br>
Frame rate : 46.875 FPS (1024 SPF)<br>
Compression mode : Lossy<br>
Delay relative to video : -2 ms<br>
Stream size : 162 MiB (8%)<br>
Title : ITA AAC 5.1 224 kbps<br>
Language : Italian (IT)<br>
Default : Yes<br>
Forced : No<br>
<br>
Audio #2<br>
ID : 3<br>
Format : AAC LC<br>
Format/Info : Advanced Audio Codec Low Complexity<br>
Codec ID : 2 / A_AAC-2<br>
Duration : 1 h 41 min<br>
Bit rate : 224 kb/s<br>
Channel(s) : 6 channels<br>
Channel layout : C L R Ls Rs LFE<br>
Sampling rate : 48.0 kHz<br>
Frame rate : 46.875 FPS (1024 SPF)<br>
Compression mode : Lossy<br>
Delay relative to video : -2 ms<br>
Stream size : 162 MiB (8%)<br>
Title : ENG AAC 5.1 224 kbps<br>
Language : English (US)<br>
Default : No<br>
Forced : No<br>
<br>
Text #1<br>
ID : 4<br>
Format : UTF-8<br>
Codec ID : S_TEXT/UTF8<br>
Codec ID/Info : UTF-8 Plain Text<br>
Duration : 58 min 39 s<br>
Bit rate : 0 b/s<br>
Frame rate : 0.002 FPS<br>
Count of elements : 7<br>
Stream size : 123 Bytes (0%)<br>
Title : Italian Forced<br>
Language : Italian<br>
Default : Yes<br>
Forced : No<br>
<br>
Text #2<br>
ID : 5<br>
Format : UTF-8<br>
Codec ID : S_TEXT/UTF8<br>
Codec ID/Info : UTF-8 Plain Text<br>
Duration : 1 h 32 min<br>
Bit rate : 62 b/s<br>
Frame rate : 0.239 FPS<br>
Count of elements : 1323<br>
Stream size : 42.3 KiB (0%)<br>
Title : Italian Regular<br>
Language : Italian<br>
Default : No<br>
Forced : No<br>
<br>
Text #3<br>
ID : 6<br>
Format : UTF-8<br>
Codec ID : S_TEXT/UTF8<br>
Codec ID/Info : UTF-8 Plain Text<br>
Duration : 1 h 32 min<br>
Bit rate : 67 b/s<br>
Frame rate : 0.270 FPS<br>
Count of elements : 1494<br>
Stream size : 45.7 KiB (0%)<br>
Title : English Regular<br>
Language : English<br>
Default : No<br>
Forced : No<br>
<br>
Text #4<br>
ID : 7<br>
Format : UTF-8<br>
Codec ID : S_TEXT/UTF8<br>
Codec ID/Info : UTF-8 Plain Text<br>
Duration : 1 h 40 min<br>
Bit rate : 74 b/s<br>
Frame rate : 0.312 FPS<br>
Count of elements : 1874<br>
Stream size : 54.7 KiB (0%)<br>
Title : English SDH<br>
Language : English<br>
Default : No<br>
Forced : No<br>
<br>
Menu<br>
00:00:00.000 : 00:00:00.000<br>
00:07:12.140 : 00:07:12.140<br>
00:16:34.911 : 00:16:34.910<br>
00:27:07.501 : 00:27:07.501<br>
00:37:25.952 : 00:37:25.952<br>
00:44:46.684 : 00:44:46.684<br>
00:48:45.131 : 00:48:45.130<br>
00:51:36.010 : 00:51:36.009<br>
00:58:56.033 : 00:58:56.032<br>
01:09:07.894 : 01:09:07.893<br>
01:13:39.624 : 01:13:39.623<br>
01:15:56.802 : 01:15:56.802<br>
01:18:52.978 : 01:18:52.978<br>
01:21:53.742 : 01:21:53.742<br>
01:27:25.365 : 01:27:25.365<br>
01:33:10.543 : 01:33:10.543</div>
</div><br>
<b>Download</b><br>
<div class="bbCodeBlock bbCodeVfcHH HiddenContent">
<div class="attribution type">Hidden Content:</div>
<blockquote>You must either reply or click 'Like' to see the hidden information contained here.</blockquote>
</div>
<div class="messageTextEndMarker">&nbsp;</div>
</blockquote>
</article>]]></description>
                <author><![CDATA[Austin Zimmermann]]></author>
                </item>

                </channel></rss>